Coordinates
version=1
nRows=23
nColumns=23
inDegrees=yes

Units are S.I. units (second, meters, Newtons, ...)
If the header above contains a line with 'inDegrees', this indicates whether rotational values are in degrees (yes) or radians (no).

endheader
time	pelvis_tilt	pelvis_list	pelvis_rotation	pelvis_tx	pelvis_ty	pelvis_tz	hip_flexion_r	hip_adduction_r	hip_rotation_r	knee_angle_r	knee_angle_r_beta	ankle_angle_r	subtalar_angle_r	mtp_angle_r	hip_flexion_l	hip_adduction_l	hip_rotation_l	knee_angle_l	knee_angle_l_beta	ankle_angle_l	subtalar_angle_l	mtp_angle_l
     15.00000000	     -0.65312314	     10.23997166	      7.95366546	      2.42479166	      0.89130334	      1.05048932	      3.21499121	    -13.76759394	     -9.34478067	     98.05187215	      1.71132801	    -13.07139485	    -26.27293064	      0.00000000	     25.46897040	     11.06896447	     -7.61617142	     44.86903505	      0.78311239	     16.78672057	     -4.56803433	      0.00000000
     15.00666667	     -1.20333466	      9.85920182	      7.96883243	      2.42142468	      0.88858350	      1.05036079	      6.73510335	    -13.23727343	     -7.91944970	    100.45011724	      1.75318528	    -12.22959893	    -25.76263865	      0.00000000	     25.41715442	     10.88765585	     -6.75066992	     46.36396197	      0.80920379	     18.56862965	     -5.12459583	      0.00000000
     15.01333333	     -1.51742022	      9.45754582	      7.82179391	      2.41833918	      0.88687354	      1.05028670	     10.00284810	    -12.64063287	     -6.51066975	    102.41275611	      1.78743979	    -11.42231975	    -25.21875456	      0.00000000	     24.83844650	     10.57193503	     -6.08659237	     47.41163922	      0.82748921	     20.33676985	     -5.47767293	      0.00000000
     15.02000000	     -2.09249012	      8.86787076	      7.65297853	      2.41535861	      0.88550811	      1.05012562	     13.59217199	    -11.85940863	     -5.19767739	    104.01272593	      1.81536453	    -10.58098125	    -24.53438254	      0.00000000	     24.35621729	     10.02813261	     -5.56324099	     48.13506874	      0.84011544	     21.94875323	     -5.40610967	      0.00000000
     15.02666667	     -2.37623905	      8.29936720	      7.35827655	      2.41289629	      0.88527968	      1.05001354	     16.75673163	    -11.07252589	     -4.01722181	    105.10741706	      1.83447050	     -9.74261213	    -23.83831228	      0.00000000	     23.26192044	      9.39043092	     -5.21527384	     48.36160255	      0.84406920	     23.43125919	     -5.26236799	      0.00000000
     15.03333333	     -2.71178767	      7.65114225	      7.05571336	      2.41073669	      0.88557661	      1.04981786	     19.88860276	    -10.27024227	     -3.07009573	    105.79900887	      1.84654105	     -8.89512760	    -23.10588936	      0.00000000	     22.04395070	      8.59734747	     -5.05718385	     48.28874418	      0.84279758	     24.79611423	     -4.60408171	      0.00000000
     15.04000000	     -2.78488599	      7.00551268	      6.67689349	      2.40929677	      0.88694612	      1.04966550	     22.51878422	     -9.45910667	     -2.32219809	    105.94491404	      1.84908758	     -8.06898714	    -22.50794145	      0.00000000	     20.27092801	      7.67532914	     -5.14654295	     47.77923187	      0.83390491	     25.99841754	     -3.71889858	      0.00000000
     15.04666667	     -2.78709740	      6.38633996	      6.28727069	      2.40832200	      0.88913571	      1.04942896	     24.89554533	     -8.74908539	     -1.78305585	    105.64222778	      1.84380470	     -7.19007350	    -21.90040562	      0.00000000	     18.17406748	      6.81066260	     -5.23115092	     46.78946612	      0.81663024	     26.73846324	     -3.06184566	      0.00000000
     15.05333333	     -2.62421470	      5.69616044	      5.88034507	      2.40798152	      0.89208169	      1.04924119	     26.85549929	     -7.99524674	     -1.51674446	    104.87141610	      1.83035150	     -6.32023199	    -21.54007241	      0.00000000	     15.72017109	      5.73612242	     -5.64527826	     45.50602523	      0.79422997	     27.42314837	     -1.71369236	      0.00000000
     15.06000000	     -2.41606392	      5.02763643	      5.47168634	      2.40812227	      0.89564568	      1.04898013	     28.55046441	     -7.33249293	     -1.44504394	    103.68976055	      1.80972772	     -5.38835265	    -21.24172315	      0.00000000	     13.02916441	      4.72554402	     -6.09405856	     43.83852740	      0.76512664	     27.70963610	     -0.54193198	      0.00000000
     15.06666667	     -2.77678175	      4.30403197	      5.23248174	      2.40828120	      0.89889536	      1.04847936	     30.71407624	     -6.73645005	     -1.60180744	    102.21506950	      1.78398951	     -4.51493408	    -21.23899906	      0.00000000	     10.92431439	      3.96487284	     -5.98086660	     41.99745766	      0.73299391	     27.68780260	     -0.04226803	      0.00000000
     15.07333333	     -2.00640258	      3.56482970	      4.73898686	      2.40962892	      0.90397943	      1.04832205	     31.28081704	     -6.06934955	     -1.96984257	    100.19503751	      1.74873330	     -3.42931272	    -21.15514448	      0.00000000	      7.32574450	      2.67030437	     -7.16166110	     39.76355315	      0.69400492	     27.46719371	      1.99319247	      0.00000000
     15.08000000	     -1.87313704	      2.79949191	      4.40537023	      2.41087491	      0.90846633	      1.04792894	     32.40923547	     -5.46830064	     -2.49054622	     97.95253471	      1.70959424	     -2.42722465	    -21.32238335	      0.00000000	      4.46502379	      1.67992296	     -7.75982895	     37.47370839	      0.65403959	     26.78865622	      3.13613257	      0.00000000
     15.08666667	     -1.80351913	      1.99838043	      4.12402270	      2.41239180	      0.91306744	      1.04747055	     33.40028900	     -4.90287216	     -3.21042425	     95.41651037	      1.66533227	     -1.42043051	    -21.56288397	      0.00000000	      1.67079574	      0.70984486	     -8.35292797	     35.09890194	      0.61259140	     25.64868621	      4.15004975	      0.00000000
     15.09333333	     -1.80418897	      1.19211626	      3.87546949	      2.41408263	      0.91767866	      1.04695547	     34.28309621	     -4.36581398	     -4.06163282	     92.61597552	      1.61645371	     -0.41531247	    -21.84181320	      0.00000000	     -1.01366049	     -0.18778295	     -8.87673008	     32.67833476	      0.57034454	     23.94679084	      4.91310302	      0.00000000
     15.10000000	     -1.87003322	      0.40434823	      3.69433940	      2.41593097	      0.92228811	      1.04634854	     35.04056526	     -3.91019825	     -5.05913674	     89.56041756	      1.56312417	      0.58897093	    -22.09678463	      0.00000000	     -3.57404880	     -0.97925003	     -9.23562802	     30.23851081	      0.52776157	     21.67383487	      5.25869810	      0.00000000
     15.10666667	     -2.01333739	     -0.35437998	      3.49227447	      2.41784360	      0.92678869	      1.04580268	     35.72638977	     -3.46458591	     -6.08930387	     86.28515314	      1.50596002	      1.55687333	    -22.28514210	      0.00000000	     -5.97426099	     -1.67041831	     -9.51764527	     27.82907133	      0.48570892	     18.87952983	      5.18339165	      0.00000000
     15.11333333	     -2.25260145	     -1.09004511	      3.23492879	      2.41983604	      0.93109765	      1.04538770	     36.37324973	     -2.98724523	     -7.11312157	     82.80043438	      1.44514020	      2.51170880	    -22.34634442	      0.00000000	     -8.16237695	     -2.30780321	     -9.87449885	     25.54827856	      0.44590158	     15.69166387	      4.90286488	      0.00000000
     15.12000000	     -2.57913498	     -1.72454437	      2.99393701	      2.42180334	      0.93527262	      1.04502493	     36.95503041	     -2.60525107	     -8.15135930	     79.11420435	      1.38080335	      3.44338524	    -22.10681447	      0.00000000	    -10.18429422	     -2.69306017	     -9.72144529	     23.25105045	      0.40580738	     11.98545656	      3.62040525	      0.00000000
     15.12666667	     -2.87989712	     -2.41448969	      2.65771271	      2.42379054	      0.93923977	      1.04490284	     37.36575030	     -2.05489795	     -9.16274203	     75.20883231	      1.31264175	      4.33646321	    -21.69647936	      0.00000000	    -11.99732574	     -3.29857456	    -10.36413518	     21.44009200	      0.37420020	      8.45408264	      3.31407530	      0.00000000
     15.13333333	     -3.28438991	     -3.00050485	      2.30632365	      2.42569706	      0.94294639	      1.04491409	     37.74659019	     -1.56445589	    -10.14541818	     71.11413912	      1.24117587	      5.22437139	    -20.85329490	      0.00000000	    -13.56538773	     -3.71487322	    -10.72648330	     19.79003775	      0.34540132	      4.69032608	      2.39885380	      0.00000000
     15.14000000	     -3.74374514	     -3.52179142	      1.87740868	      2.42747559	      0.94634401	      1.04514867	     38.05946261	     -1.01966274	    -11.03314914	     66.83707130	      1.16652696	      6.09262372	    -19.62628503	      0.00000000	    -14.85229015	     -4.12594130	    -11.46267574	     18.57625745	      0.32421686	      1.09485645	      1.77970013	      0.00000000
     15.14666667	     -4.22556430	     -3.97135492	      1.39863852	      2.42918942	      0.94950707	      1.04559727	     38.25082069	     -0.43975643	    -11.84586812	     62.36612366	      1.08849420	      6.98266016	    -17.92313299	      0.00000000	    -15.92310406	     -4.48674284	    -12.31312296	     17.73580658	      0.30954822	     -2.20103161	      1.25937237	      0.00000000
